<svg  xmlns="http://www.w3.org/2000/svg" xmlns:xlink="http://www.w3.org/1999/xlink" width="48px" height="48px"><path fill-rule="evenodd"  fill="rgb(255, 255, 255)" d="M23.999,0.000 C37.254,0.000 47.999,10.745 47.999,24.000 C47.999,37.255 37.254,47.1000 23.999,47.1000 C10.745,47.1000 0.001,37.255 0.001,24.000 C0.001,10.745 10.745,0.000 23.999,0.000 Z"/><path fill-rule="evenodd"  fill="rgb(90, 75, 247)" d="M23.999,1.943 C11.818,1.943 1.942,11.818 1.942,24.000 C1.942,36.182 11.818,46.057 23.999,46.057 C36.181,46.057 46.057,36.182 46.057,24.000 C46.057,11.818 36.181,1.943 23.999,1.943 ZM36.651,18.279 L22.387,32.544 L22.387,32.544 C21.727,33.202 20.725,33.305 19.960,32.853 C19.818,32.769 19.685,32.666 19.562,32.544 C19.561,32.544 19.561,32.544 19.561,32.544 L11.349,24.331 C10.569,23.551 10.569,22.287 11.349,21.508 C12.129,20.728 13.393,20.728 14.171,21.508 L20.974,28.310 L33.828,15.455 C34.608,14.676 35.872,14.676 36.652,15.455 C37.431,16.235 37.431,17.499 36.651,18.279 Z"/></svg>