<svg  xmlns="http://www.w3.org/2000/svg" xmlns:xlink="http://www.w3.org/1999/xlink" width="56px" height="56px"><path fill-rule="evenodd"  stroke="rgb(91, 75, 247)" stroke-width="4px" stroke-linecap="butt" stroke-linejoin="miter" fill="none" d="M11.1000,5.1000 C11.1000,5.1000 7.993,5.1000 14.623,5.1000 C26.976,5.1000 22.857,11.1000 25.937,11.1000 C30.020,11.1000 42.000,11.1000 42.000,11.1000 C47.523,11.1000 52.000,16.477 52.000,21.1000 L52.000,42.000 C52.000,47.523 47.523,52.000 42.000,52.000 L11.1000,52.000 C6.477,52.000 2.000,47.523 2.000,42.000 L2.000,15.1000 C2.000,10.477 6.477,5.1000 11.1000,5.1000 Z"/><path fill-rule="evenodd"  fill="rgb(28, 203, 113)" d="M32.996,34.520 L29.801,34.520 L29.801,37.912 C29.801,38.899 28.785,39.682 27.472,39.682 C26.160,39.682 25.278,38.892 25.278,37.715 L25.278,34.520 L21.900,34.520 C20.914,34.520 20.131,33.504 20.131,32.192 C20.131,30.879 20.920,29.997 22.098,29.997 L25.278,29.997 L25.278,26.816 C25.278,25.836 26.158,24.849 27.472,24.849 C28.573,24.849 29.801,25.638 29.801,26.816 L29.801,29.997 L32.996,29.997 C33.977,29.997 34.963,30.877 34.963,32.192 C34.963,33.292 34.174,34.520 32.996,34.520 Z"/></svg>